<?xml version="1.0" encoding="UTF-8" standalone="no"?>
<!-- Created with Inkscape (http://www.inkscape.org/) -->

<svg
   xmlns:dc="http://purl.org/dc/elements/1.1/"
   xmlns:cc="http://creativecommons.org/ns#"
   xmlns:rdf="http://www.w3.org/1999/02/22-rdf-syntax-ns#"
   xmlns:svg="http://www.w3.org/2000/svg"
   xmlns="http://www.w3.org/2000/svg"
   xmlns:xlink="http://www.w3.org/1999/xlink"
   xmlns:sodipodi="http://sodipodi.sourceforge.net/DTD/sodipodi-0.dtd"
   xmlns:inkscape="http://www.inkscape.org/namespaces/inkscape"
   width="483.32306"
   height="639.21655"
   viewBox="0 0 483.32307 639.21656"
   id="svg2"
   version="1.1"
   inkscape:version="0.91 r13725"
   sodipodi:docname="frame.svg">
  <defs
     id="defs4">
    <linearGradient
       id="linearGradient4351"
       inkscape:collect="always">
      <stop
         id="stop4353"
         offset="0"
         style="stop-color:#0068c8;stop-opacity:1" />
      <stop
         id="stop4355"
         offset="1"
         style="stop-color:#3ccfff;stop-opacity:1" />
    </linearGradient>
    <linearGradient
       inkscape:collect="always"
       id="linearGradient4277">
      <stop
         style="stop-color:#0068c8;stop-opacity:1"
         offset="0"
         id="stop4279" />
      <stop
         style="stop-color:#3cffe5;stop-opacity:1"
         offset="1"
         id="stop4281" />
    </linearGradient>
    <linearGradient
       inkscape:collect="always"
       xlink:href="#linearGradient4351"
       id="linearGradient4267"
       x1="249.65875"
       y1="732.39026"
       x2="466.61234"
       y2="732.39026"
       gradientUnits="userSpaceOnUse" />
    <linearGradient
       inkscape:collect="always"
       xlink:href="#linearGradient4351"
       id="linearGradient4275"
       x1="36.581341"
       y1="979.92273"
       x2="465.32025"
       y2="979.92273"
       gradientUnits="userSpaceOnUse" />
    <linearGradient
       inkscape:collect="always"
       xlink:href="#linearGradient4277"
       id="linearGradient4283"
       x1="58.522793"
       y1="555.61359"
       x2="252.24287"
       y2="732.39026"
       gradientUnits="userSpaceOnUse" />
    <linearGradient
       inkscape:collect="always"
       xlink:href="#linearGradient4351"
       id="linearGradient4291"
       x1="248.58154"
       y1="597.73938"
       x2="255.03651"
       y2="597.73938"
       gradientUnits="userSpaceOnUse" />
    <linearGradient
       inkscape:collect="always"
       xlink:href="#linearGradient4351"
       id="linearGradient4299"
       x1="376.40488"
       y1="892.95526"
       x2="464.02692"
       y2="892.95526"
       gradientUnits="userSpaceOnUse" />
    <linearGradient
       inkscape:collect="always"
       xlink:href="#linearGradient4351"
       id="linearGradient4307"
       x1="122.48537"
       y1="756.82513"
       x2="380.71274"
       y2="756.82513"
       gradientUnits="userSpaceOnUse" />
    <linearGradient
       inkscape:collect="always"
       xlink:href="#linearGradient4351"
       id="linearGradient4315"
       x1="37.019264"
       y1="892.54895"
       x2="125.20345"
       y2="892.54895"
       gradientUnits="userSpaceOnUse" />
    <linearGradient
       inkscape:collect="always"
       xlink:href="#linearGradient4351"
       id="linearGradient4323"
       x1="121.19331"
       y1="833.22314"
       x2="379.41632"
       y2="833.22314"
       gradientUnits="userSpaceOnUse" />
    <linearGradient
       inkscape:collect="always"
       xlink:href="#linearGradient4351"
       id="linearGradient4331"
       x1="294.28815"
       y1="538.0332"
       x2="459.90427"
       y2="538.0332"
       gradientUnits="userSpaceOnUse" />
    <linearGradient
       inkscape:collect="always"
       xlink:href="#linearGradient4351"
       id="linearGradient4357"
       gradientUnits="userSpaceOnUse"
       x1="58.522793"
       y1="555.61359"
       x2="252.24287"
       y2="732.39026" />
    <linearGradient
       inkscape:collect="always"
       xlink:href="#linearGradient4351"
       id="linearGradient4399"
       x1="75.401459"
       y1="1095.6293"
       x2="430.70551"
       y2="1095.6293"
       gradientUnits="userSpaceOnUse" />
    <linearGradient
       inkscape:collect="always"
       xlink:href="#linearGradient4351"
       id="linearGradient4401"
       gradientUnits="userSpaceOnUse"
       x1="75.401459"
       y1="1095.6293"
       x2="430.70551"
       y2="1095.6293" />
    <linearGradient
       inkscape:collect="always"
       xlink:href="#linearGradient4351"
       id="linearGradient4403"
       gradientUnits="userSpaceOnUse"
       x1="75.401459"
       y1="1095.6293"
       x2="430.70551"
       y2="1095.6293" />
    <linearGradient
       inkscape:collect="always"
       xlink:href="#linearGradient4351"
       id="linearGradient4405"
       gradientUnits="userSpaceOnUse"
       x1="75.401459"
       y1="1095.6293"
       x2="430.70551"
       y2="1095.6293" />
    <linearGradient
       inkscape:collect="always"
       xlink:href="#linearGradient4351"
       id="linearGradient4407"
       gradientUnits="userSpaceOnUse"
       x1="75.401459"
       y1="1095.6293"
       x2="430.70551"
       y2="1095.6293" />
    <linearGradient
       inkscape:collect="always"
       xlink:href="#linearGradient4351"
       id="linearGradient4409"
       gradientUnits="userSpaceOnUse"
       x1="75.401459"
       y1="1095.6293"
       x2="430.70551"
       y2="1095.6293" />
    <linearGradient
       inkscape:collect="always"
       xlink:href="#linearGradient4351"
       id="linearGradient4411"
       gradientUnits="userSpaceOnUse"
       x1="75.401459"
       y1="1095.6293"
       x2="430.70551"
       y2="1095.6293" />
    <linearGradient
       inkscape:collect="always"
       xlink:href="#linearGradient4351"
       id="linearGradient4413"
       gradientUnits="userSpaceOnUse"
       x1="75.401459"
       y1="1095.6293"
       x2="430.70551"
       y2="1095.6293" />
    <linearGradient
       inkscape:collect="always"
       xlink:href="#linearGradient4351"
       id="linearGradient4415"
       gradientUnits="userSpaceOnUse"
       x1="294.28815"
       y1="538.0332"
       x2="459.90427"
       y2="538.0332" />
    <linearGradient
       inkscape:collect="always"
       xlink:href="#linearGradient4351"
       id="linearGradient4417"
       gradientUnits="userSpaceOnUse"
       x1="294.28815"
       y1="538.0332"
       x2="459.90427"
       y2="538.0332" />
    <linearGradient
       inkscape:collect="always"
       xlink:href="#linearGradient4351"
       id="linearGradient4419"
       gradientUnits="userSpaceOnUse"
       x1="294.28815"
       y1="538.0332"
       x2="459.90427"
       y2="538.0332" />
  </defs>
  <sodipodi:namedview
     id="base"
     pagecolor="#ffffff"
     bordercolor="#666666"
     borderopacity="1.0"
     inkscape:pageopacity="0.0"
     inkscape:pageshadow="2"
     inkscape:zoom="0.98994949"
     inkscape:cx="313.53513"
     inkscape:cy="148.33003"
     inkscape:document-units="px"
     inkscape:current-layer="layer1"
     showgrid="false"
     showguides="true"
     inkscape:guide-bbox="true"
     units="px"
     inkscape:window-width="1209"
     inkscape:window-height="728"
     inkscape:window-x="105"
     inkscape:window-y="1"
     inkscape:window-maximized="0"
     fit-margin-top="26"
     fit-margin-left="26"
     fit-margin-right="26"
     fit-margin-bottom="26">
    <inkscape:grid
       type="xygrid"
       id="grid4215"
       originx="-9.2892836"
       originy="107.59521" />
  </sodipodi:namedview>
  <metadata
     id="metadata7">
    <rdf:RDF>
      <cc:Work
         rdf:about="">
        <dc:format>image/svg+xml</dc:format>
        <dc:type
           rdf:resource="http://purl.org/dc/dcmitype/StillImage" />
        <dc:title></dc:title>
      </cc:Work>
    </rdf:RDF>
  </metadata>
  <g
     inkscape:label="Layer 1"
     inkscape:groupmode="layer"
     id="layer1"
     transform="translate(-9.2892831,-520.74085)">
    <path
       style="opacity:1;fill:none;fill-opacity:0.88535037;stroke:url(#linearGradient4267);stroke-width:5.16823387;stroke-miterlimit:4;stroke-dasharray:none;stroke-opacity:1"
       d="m 250.95082,548.97876 213.07739,123.0203 -10e-6,246.04059"
       id="path4156"
       inkscape:connector-curvature="0"
       sodipodi:nodetypes="ccc" />
    <path
       style="opacity:1;fill:none;fill-opacity:0.88535037;stroke:url(#linearGradient4275);stroke-width:5.16823387;stroke-miterlimit:4;stroke-dasharray:none;stroke-opacity:1"
       d="M 464.0282,918.03965 250.95079,1041.0599 37.8734,918.03963"
       id="path4152"
       inkscape:connector-curvature="0"
       sodipodi:nodetypes="ccc" />
    <g
       id="g4204"
       style="stroke:url(#linearGradient4283)">
      <path
         id="path4148"
         d="m 37.8734,918.03963 1e-5,-246.04059 213.07741,-123.02028"
         style="opacity:1;fill:none;fill-opacity:0.88535037;stroke:url(#linearGradient4357);stroke-width:5.16823387;stroke-miterlimit:4;stroke-dasharray:none;stroke-opacity:1"
         inkscape:connector-curvature="0"
         sodipodi:nodetypes="ccc" />
    </g>
    <path
       style="fill:none;fill-rule:evenodd;stroke:url(#linearGradient4291);stroke-width:5.16823435;stroke-linecap:butt;stroke-linejoin:miter;stroke-miterlimit:4;stroke-dasharray:none;stroke-opacity:1"
       d="m 251.16544,548.76645 1.28718,97.94588"
       id="path4166"
       inkscape:connector-curvature="0"
       sodipodi:nodetypes="cc" />
    <path
       style="fill:none;fill-rule:evenodd;stroke:url(#linearGradient4299);stroke-width:5.16823435;stroke-linecap:butt;stroke-linejoin:miter;stroke-miterlimit:4;stroke-dasharray:none;stroke-opacity:1"
       d="M 462.73678,917.45612 377.69501,868.45438"
       id="path4255"
       inkscape:connector-curvature="0" />
    <path
       style="fill:none;fill-rule:evenodd;stroke:url(#linearGradient4307);stroke-width:5.16823435;stroke-linecap:butt;stroke-linejoin:miter;stroke-miterlimit:4;stroke-dasharray:none;stroke-opacity:1"
       d="m 377.69501,868.45438 0.42924,-146.85861 -127.17341,-73.4236 -127.17341,73.4236"
       id="path4168"
       inkscape:connector-curvature="0" />
    <path
       style="fill:none;fill-rule:evenodd;stroke:url(#linearGradient4315);stroke-width:5.16823435;stroke-linecap:butt;stroke-linejoin:miter;stroke-miterlimit:4;stroke-dasharray:none;stroke-opacity:1"
       d="m 38.306091,917.12937 85.610529,-49.1609"
       id="path4170"
       inkscape:connector-curvature="0"
       sodipodi:nodetypes="cc" />
    <path
       style="opacity:1;fill:none;fill-opacity:1;stroke:url(#linearGradient4323);stroke-width:5.16823435;stroke-miterlimit:4;stroke-dasharray:none;stroke-opacity:1"
       d="m 123.77743,721.59577 0,146.84721 127.17342,73.4236 127.17342,-73.42361"
       id="path4202"
       inkscape:connector-curvature="0"
       sodipodi:nodetypes="cccc" />
    <g
       transform="matrix(2.584117,0,0,2.584117,-723.63043,-536.36784)"
       style="stroke:url(#linearGradient4331);stroke-width:2;stroke-miterlimit:4;stroke-dasharray:none;stroke-opacity:1"
       id="g4176">
      <path
         style="fill:none;fill-rule:evenodd;stroke:url(#linearGradient4415);stroke-width:2;stroke-linecap:butt;stroke-linejoin:miter;stroke-miterlimit:4;stroke-dasharray:none;stroke-opacity:1"
         d="M 376.90366,515.2336 294.78724,467.93792"
         id="path4178"
         inkscape:connector-curvature="0"
         sodipodi:nodetypes="cc" />
      <path
         style="fill:none;fill-rule:evenodd;stroke:url(#linearGradient4417);stroke-width:2;stroke-linecap:butt;stroke-linejoin:miter;stroke-miterlimit:4;stroke-dasharray:none;stroke-opacity:1"
         d="m 376.95731,515.36545 82.44542,-47.79584"
         id="path4180"
         inkscape:connector-curvature="0"
         sodipodi:nodetypes="cc" />
      <path
         style="fill:none;fill-rule:evenodd;stroke:url(#linearGradient4419);stroke-width:2;stroke-linecap:butt;stroke-linejoin:miter;stroke-miterlimit:4;stroke-dasharray:none;stroke-opacity:1"
         d="m 377.14286,515.21935 0,94.14256"
         id="path4182"
         inkscape:connector-curvature="0"
         sodipodi:nodetypes="cc" />
    </g>
    <g
       style="font-style:normal;font-variant:normal;font-weight:200;font-stretch:normal;font-size:98.36250305px;line-height:125%;font-family:'.HeitiUI GB18030PUA';-inkscape-font-specification:'.HeitiUI GB18030PUA, Ultra-Light';text-align:start;letter-spacing:0px;word-spacing:0px;writing-mode:lr-tb;text-anchor:start;fill:none;fill-opacity:1;stroke:url(#linearGradient4399);stroke-width:1.89999998;stroke-linecap:butt;stroke-linejoin:miter;stroke-miterlimit:4;stroke-dasharray:none;stroke-opacity:1"
       id="text4359"
       transform="translate(14.142136,0)">
      <path
         d="m 133.64746,1131.4336 -0.59017,-0.1967 0.0984,0 0,-0.2951 0.49181,0.4918 z m -54.78791,-70.6243 -0.09836,0 0,0.3934 -0.491813,-0.5901 0.590175,0.1967 z m -0.09836,70.4276 0,-70.0342 49.77142,57.4438 0,-57.8372 4.62304,0 0,70.1325 -49.574697,-56.8536 0,57.1487 -4.819763,0 z"
         style="fill:none;stroke:url(#linearGradient4401);stroke-width:1.89999998;stroke-miterlimit:4;stroke-dasharray:none;stroke-opacity:1"
         id="path4379"
         inkscape:connector-curvature="0" />
      <path
         d="m 161.11365,1123.7613 q 0,1.7705 0.0984,2.7542 0.19672,0.9836 0.7869,1.4754 0.59017,0.3934 1.67216,0.4918 1.18035,0.098 3.1476,0.098 l 2.85251,0 0,3.9345 q -1.67216,0.1967 -3.1476,0.3934 -1.37707,0.098 -2.26234,0.098 -3.9345,0 -5.80338,-1.8689 -1.77053,-1.8689 -1.77053,-6.2952 l 0,-41.9024 -9.63952,0 0,-3.7378 9.63952,0 0,-20.9512 4.42631,0 0,20.9512 11.0166,0 0,3.7378 -11.0166,0 0,40.8204 z"
         style="fill:none;stroke:url(#linearGradient4403);stroke-width:1.89999998;stroke-miterlimit:4;stroke-dasharray:none;stroke-opacity:1"
         id="path4381"
         inkscape:connector-curvature="0" />
      <path
         d="m 232.31273,1118.253 q -4.22958,7.2788 -10.32806,11.0166 -6.00011,3.7378 -13.96747,3.7378 -5.90175,0 -10.62316,-1.8689 -4.7214,-1.9673 -8.6559,-6.0985 -7.57391,-8.1641 -7.57391,-19.5741 0,-11.5084 7.57391,-19.6725 7.869,-7.9674 18.88561,-7.9674 11.31168,0 18.78723,7.4756 3.63942,3.541 5.60667,8.5575 2.06561,5.0165 2.45906,11.0166 l -48.7878,0 q 0.29508,11.5084 6.39356,17.7053 6.19684,6.1968 15.34455,6.1968 6.98374,0 12.29531,-2.9509 5.31158,-3.0492 8.95099,-9.5411 l 3.63941,1.9672 z m -2.75415,-17.1151 q -0.7869,-4.9181 -2.75415,-8.3608 -1.96725,-3.541 -5.11485,-5.9017 -3.04923,-2.3607 -6.49192,-3.4427 -3.44269,-1.082 -7.47555,-1.082 -16.32818,0 -21.73812,18.7872 l 43.57459,0 z"
         style="fill:none;stroke:url(#linearGradient4405);stroke-width:1.89999998;stroke-miterlimit:4;stroke-dasharray:none;stroke-opacity:1"
         id="path4383"
         inkscape:connector-curvature="0" />
      <path
         d="m 245.23664,1079.2031 4.52467,0 0,9.0493 1.37708,0.1968 q 3.1476,-6.0985 6.00011,-8.3608 2.85251,-2.2624 5.80339,-2.2624 2.55742,0 4.81976,1.082 -0.68854,0.8853 -1.08199,1.4754 -0.29508,0.5902 -0.7869,1.4755 l -0.59017,0.9836 q -1.18035,-0.3934 -2.65579,-0.3934 -1.77052,0 -3.54105,0.9836 -1.67216,0.8852 -3.24596,2.5574 -1.47544,1.6722 -2.75415,4.0329 -1.18035,2.2623 -1.86889,5.0165 l 0,-0.098 q -0.68854,2.5574 -1.08199,7.2788 -0.39345,4.7214 -0.39345,11.7052 l 0,17.3118 -4.52467,0 0,-52.0338 z"
         style="fill:none;stroke:url(#linearGradient4407);stroke-width:1.89999998;stroke-miterlimit:4;stroke-dasharray:none;stroke-opacity:1"
         id="path4385"
         inkscape:connector-curvature="0" />
      <path
         d="m 328.53278,1079.2031 0,52.0338 -4.22958,0 0,-11.8035 q -11.21333,13.574 -22.62338,13.574 -5.5083,0 -10.32806,-1.9673 -4.7214,-2.0656 -8.75426,-6.1968 -7.96737,-8.0657 -7.96737,-19.4758 0,-11.5084 8.06573,-19.4758 7.96736,-8.0657 18.68887,-8.0657 12.78713,0 22.91847,14.0659 l 0,-12.6888 4.22958,0 z m -3.83613,26.2628 q 0,-9.8363 -6.49193,-16.4266 -6.68865,-6.6886 -16.42654,-6.6886 -9.54116,0 -16.22981,6.9837 -6.49192,6.9838 -6.49192,16.2298 0,9.2461 6.59028,16.3282 6.59029,6.8854 16.13145,6.8854 9.73789,0 16.32818,-6.5903 6.59029,-6.5903 6.59029,-16.7216 z"
         style="fill:none;stroke:url(#linearGradient4409);stroke-width:1.89999998;stroke-miterlimit:4;stroke-dasharray:none;stroke-opacity:1"
         id="path4387"
         inkscape:connector-curvature="0" />
      <path
         d="m 390.85465,1091.105 q -3.73778,-4.6231 -8.6559,-6.6887 -4.81976,-2.164 -11.31169,-2.164 -10.52479,0 -17.41016,6.5903 -6.98374,6.787 -6.98374,16.2298 0,9.9346 6.78701,16.82 6.88538,6.8854 17.60689,6.8854 6.19684,0 11.0166,-2.0656 4.91813,-2.164 8.95099,-6.8854 0.88526,0.6885 1.27871,0.9836 0.49181,0.2951 1.27871,0.7869 l 0.88527,0.5902 q -4.13123,5.2132 -10.42643,8.0657 -6.2952,2.7542 -13.67239,2.7542 -5.90175,0 -10.91823,-1.8689 -5.01649,-1.9673 -9.04935,-6.0985 -8.16409,-7.9673 -8.16409,-19.3774 0,-5.8034 2.06561,-10.6231 2.06561,-4.9182 6.19684,-9.0494 8.16409,-8.1641 20.85285,-8.1641 7.47555,0 13.57402,2.8525 6.09848,2.8525 9.54117,8.2625 l -3.44269,2.164 z"
         style="fill:none;stroke:url(#linearGradient4411);stroke-width:1.89999998;stroke-miterlimit:4;stroke-dasharray:none;stroke-opacity:1"
         id="path4389"
         inkscape:connector-curvature="0" />
      <path
         d="m 418.73887,1123.7613 q 0,1.7705 0.0984,2.7542 0.19672,0.9836 0.7869,1.4754 0.59017,0.3934 1.67216,0.4918 1.18035,0.098 3.1476,0.098 l 2.85251,0 0,3.9345 q -1.67216,0.1967 -3.1476,0.3934 -1.37707,0.098 -2.26234,0.098 -3.9345,0 -5.80338,-1.8689 -1.77053,-1.8689 -1.77053,-6.2952 l 0,-41.9024 -9.63952,0 0,-3.7378 9.63952,0 0,-20.9512 4.42631,0 0,20.9512 11.0166,0 0,3.7378 -11.0166,0 0,40.8204 z"
         style="fill:none;stroke:url(#linearGradient4413);stroke-width:1.89999998;stroke-miterlimit:4;stroke-dasharray:none;stroke-opacity:1"
         id="path4391"
         inkscape:connector-curvature="0" />
    </g>
  </g>
</svg>
