<?xml version="1.0" encoding="UTF-8" standalone="no"?>
<!-- Created with Inkscape (http://www.inkscape.org/) -->

<svg
   xmlns:dc="http://purl.org/dc/elements/1.1/"
   xmlns:cc="http://creativecommons.org/ns#"
   xmlns:rdf="http://www.w3.org/1999/02/22-rdf-syntax-ns#"
   xmlns:svg="http://www.w3.org/2000/svg"
   xmlns="http://www.w3.org/2000/svg"
   xmlns:xlink="http://www.w3.org/1999/xlink"
   xmlns:sodipodi="http://sodipodi.sourceforge.net/DTD/sodipodi-0.dtd"
   xmlns:inkscape="http://www.inkscape.org/namespaces/inkscape"
   width="483.32306"
   height="639.21655"
   viewBox="0 0 483.32307 639.21656"
   id="svg2"
   version="1.1"
   inkscape:version="0.91 r13725"
   sodipodi:docname="frame.svg">
  <defs
     id="defs4">
    <linearGradient
       id="linearGradient4351"
       inkscape:collect="always">
      <stop
         id="stop4353"
         offset="0"
         style="stop-color:#0068c8;stop-opacity:1" />
      <stop
         id="stop4355"
         offset="1"
         style="stop-color:#3ccfff;stop-opacity:1" />
    </linearGradient>
    <linearGradient
       inkscape:collect="always"
       id="linearGradient4277">
      <stop
         style="stop-color:#0068c8;stop-opacity:1"
         offset="0"
         id="stop4279" />
      <stop
         style="stop-color:#3cffe5;stop-opacity:1"
         offset="1"
         id="stop4281" />
    </linearGradient>
    <linearGradient
       inkscape:collect="always"
       xlink:href="#linearGradient4351"
       id="linearGradient4267"
       x1="249.65875"
       y1="732.39026"
       x2="466.61234"
       y2="732.39026"
       gradientUnits="userSpaceOnUse" />
    <linearGradient
       inkscape:collect="always"
       xlink:href="#linearGradient4351"
       id="linearGradient4275"
       x1="36.581341"
       y1="979.92273"
       x2="465.32025"
       y2="979.92273"
       gradientUnits="userSpaceOnUse" />
    <linearGradient
       inkscape:collect="always"
       xlink:href="#linearGradient4277"
       id="linearGradient4283"
       x1="58.522793"
       y1="555.61359"
       x2="252.24287"
       y2="732.39026"
       gradientUnits="userSpaceOnUse" />
    <linearGradient
       inkscape:collect="always"
       xlink:href="#linearGradient4351"
       id="linearGradient4291"
       x1="248.58154"
       y1="597.73938"
       x2="255.03651"
       y2="597.73938"
       gradientUnits="userSpaceOnUse" />
    <linearGradient
       inkscape:collect="always"
       xlink:href="#linearGradient4351"
       id="linearGradient4299"
       x1="376.40488"
       y1="892.95526"
       x2="464.02692"
       y2="892.95526"
       gradientUnits="userSpaceOnUse" />
    <linearGradient
       inkscape:collect="always"
       xlink:href="#linearGradient4351"
       id="linearGradient4307"
       x1="122.48537"
       y1="756.82513"
       x2="380.71274"
       y2="756.82513"
       gradientUnits="userSpaceOnUse" />
    <linearGradient
       inkscape:collect="always"
       xlink:href="#linearGradient4351"
       id="linearGradient4315"
       x1="37.019264"
       y1="892.54895"
       x2="125.20345"
       y2="892.54895"
       gradientUnits="userSpaceOnUse" />
    <linearGradient
       inkscape:collect="always"
       xlink:href="#linearGradient4351"
       id="linearGradient4323"
       x1="121.19331"
       y1="833.22314"
       x2="379.41632"
       y2="833.22314"
       gradientUnits="userSpaceOnUse" />
    <linearGradient
       inkscape:collect="always"
       xlink:href="#linearGradient4351"
       id="linearGradient4331"
       x1="294.28815"
       y1="538.0332"
       x2="459.90427"
       y2="538.0332"
       gradientUnits="userSpaceOnUse" />
    <linearGradient
       inkscape:collect="always"
       xlink:href="#linearGradient4351"
       id="linearGradient4357"
       gradientUnits="userSpaceOnUse"
       x1="58.522793"
       y1="555.61359"
       x2="252.24287"
       y2="732.39026" />
    <linearGradient
       inkscape:collect="always"
       xlink:href="#linearGradient4351"
       id="linearGradient4401"
       gradientUnits="userSpaceOnUse"
       x1="75.401459"
       y1="1095.6293"
       x2="430.70551"
       y2="1095.6293"
       gradientTransform="translate(14.142136,0)" />
    <linearGradient
       inkscape:collect="always"
       xlink:href="#linearGradient4351"
       id="linearGradient4403"
       gradientUnits="userSpaceOnUse"
       x1="75.401459"
       y1="1095.6293"
       x2="430.70551"
       y2="1095.6293"
       gradientTransform="translate(14.142136,0)" />
    <linearGradient
       inkscape:collect="always"
       xlink:href="#linearGradient4351"
       id="linearGradient4405"
       gradientUnits="userSpaceOnUse"
       x1="75.401459"
       y1="1095.6293"
       x2="430.70551"
       y2="1095.6293"
       gradientTransform="translate(14.142136,0)" />
    <linearGradient
       inkscape:collect="always"
       xlink:href="#linearGradient4351"
       id="linearGradient4407"
       gradientUnits="userSpaceOnUse"
       x1="75.401459"
       y1="1095.6293"
       x2="430.70551"
       y2="1095.6293"
       gradientTransform="translate(14.142136,0)" />
    <linearGradient
       inkscape:collect="always"
       xlink:href="#linearGradient4351"
       id="linearGradient4409"
       gradientUnits="userSpaceOnUse"
       x1="75.401459"
       y1="1095.6293"
       x2="430.70551"
       y2="1095.6293"
       gradientTransform="translate(14.142136,0)" />
    <linearGradient
       inkscape:collect="always"
       xlink:href="#linearGradient4351"
       id="linearGradient4411"
       gradientUnits="userSpaceOnUse"
       x1="75.401459"
       y1="1095.6293"
       x2="430.70551"
       y2="1095.6293"
       gradientTransform="translate(14.142136,0)" />
    <linearGradient
       inkscape:collect="always"
       xlink:href="#linearGradient4351"
       id="linearGradient4413"
       gradientUnits="userSpaceOnUse"
       x1="75.401459"
       y1="1095.6293"
       x2="430.70551"
       y2="1095.6293"
       gradientTransform="translate(14.142136,0)" />
    <linearGradient
       inkscape:collect="always"
       xlink:href="#linearGradient4351"
       id="linearGradient4415"
       gradientUnits="userSpaceOnUse"
       x1="294.28815"
       y1="538.0332"
       x2="459.90427"
       y2="538.0332" />
    <linearGradient
       inkscape:collect="always"
       xlink:href="#linearGradient4351"
       id="linearGradient4417"
       gradientUnits="userSpaceOnUse"
       x1="294.28815"
       y1="538.0332"
       x2="459.90427"
       y2="538.0332" />
    <linearGradient
       inkscape:collect="always"
       xlink:href="#linearGradient4351"
       id="linearGradient4419"
       gradientUnits="userSpaceOnUse"
       x1="294.28815"
       y1="538.0332"
       x2="459.90427"
       y2="538.0332" />
  </defs>
  <sodipodi:namedview
     id="base"
     pagecolor="#ffffff"
     bordercolor="#666666"
     borderopacity="1.0"
     inkscape:pageopacity="0.0"
     inkscape:pageshadow="2"
     inkscape:zoom="1"
     inkscape:cx="519.71239"
     inkscape:cy="-87.78977"
     inkscape:document-units="px"
     inkscape:current-layer="layer1"
     showgrid="false"
     showguides="true"
     inkscape:guide-bbox="true"
     units="px"
     inkscape:window-width="1209"
     inkscape:window-height="728"
     inkscape:window-x="105"
     inkscape:window-y="1"
     inkscape:window-maximized="0"
     fit-margin-top="26"
     fit-margin-left="26"
     fit-margin-right="26"
     fit-margin-bottom="26">
    <inkscape:grid
       type="xygrid"
       id="grid4215"
       originx="-9.2892836"
       originy="107.59521" />
  </sodipodi:namedview>
  <metadata
     id="metadata7">
    <rdf:RDF>
      <cc:Work
         rdf:about="">
        <dc:format>image/svg+xml</dc:format>
        <dc:type
           rdf:resource="http://purl.org/dc/dcmitype/StillImage" />
        <dc:title />
      </cc:Work>
    </rdf:RDF>
  </metadata>
  <g
     inkscape:label="Layer 1"
     inkscape:groupmode="layer"
     id="layer1"
     transform="translate(-9.2892831,-520.74085)">
    <path
       style="opacity:1;fill:none;fill-opacity:0.88535037;stroke:url(#linearGradient4267);stroke-width:5.16823387;stroke-miterlimit:4;stroke-dasharray:none;stroke-opacity:1"
       d="m 250.95082,548.97876 213.07739,123.0203 -10e-6,246.04059"
       id="path4156"
       inkscape:connector-curvature="0"
       sodipodi:nodetypes="ccc" />
    <path
       style="opacity:1;fill:none;fill-opacity:0.88535037;stroke:url(#linearGradient4275);stroke-width:5.16823387;stroke-miterlimit:4;stroke-dasharray:none;stroke-opacity:1"
       d="M 464.0282,918.03965 250.95079,1041.0599 37.8734,918.03963"
       id="path4152"
       inkscape:connector-curvature="0"
       sodipodi:nodetypes="ccc" />
    <g
       id="g4204"
       style="stroke:url(#linearGradient4283)">
      <path
         id="path4148"
         d="m 37.8734,918.03963 1e-5,-246.04059 213.07741,-123.02028"
         style="opacity:1;fill:none;fill-opacity:0.88535037;stroke:url(#linearGradient4357);stroke-width:5.16823387;stroke-miterlimit:4;stroke-dasharray:none;stroke-opacity:1"
         inkscape:connector-curvature="0"
         sodipodi:nodetypes="ccc" />
    </g>
    <path
       style="fill:none;fill-rule:evenodd;stroke:url(#linearGradient4291);stroke-width:5.16823435;stroke-linecap:butt;stroke-linejoin:miter;stroke-miterlimit:4;stroke-dasharray:none;stroke-opacity:1"
       d="m 251.16544,548.76645 1.28718,97.94588"
       id="path4166"
       inkscape:connector-curvature="0"
       sodipodi:nodetypes="cc" />
    <path
       style="fill:none;fill-rule:evenodd;stroke:url(#linearGradient4299);stroke-width:5.16823435;stroke-linecap:butt;stroke-linejoin:miter;stroke-miterlimit:4;stroke-dasharray:none;stroke-opacity:1"
       d="M 462.73678,917.45612 377.69501,868.45438"
       id="path4255"
       inkscape:connector-curvature="0" />
    <path
       style="fill:none;fill-rule:evenodd;stroke:url(#linearGradient4307);stroke-width:5.16823435;stroke-linecap:butt;stroke-linejoin:miter;stroke-miterlimit:4;stroke-dasharray:none;stroke-opacity:1"
       d="m 377.69501,868.45438 0.42924,-146.85861 -127.17341,-73.4236 -127.17341,73.4236"
       id="path4168"
       inkscape:connector-curvature="0" />
    <path
       style="fill:none;fill-rule:evenodd;stroke:url(#linearGradient4315);stroke-width:5.16823435;stroke-linecap:butt;stroke-linejoin:miter;stroke-miterlimit:4;stroke-dasharray:none;stroke-opacity:1"
       d="m 38.306091,917.12937 85.610529,-49.1609"
       id="path4170"
       inkscape:connector-curvature="0"
       sodipodi:nodetypes="cc" />
    <path
       style="opacity:1;fill:none;fill-opacity:1;stroke:url(#linearGradient4323);stroke-width:5.16823435;stroke-miterlimit:4;stroke-dasharray:none;stroke-opacity:1"
       d="m 123.77743,721.59577 0,146.84721 127.17342,73.4236 127.17342,-73.42361"
       id="path4202"
       inkscape:connector-curvature="0"
       sodipodi:nodetypes="cccc" />
    <g
       transform="matrix(2.584117,0,0,2.584117,-723.63043,-536.36784)"
       style="stroke:url(#linearGradient4331);stroke-width:2;stroke-miterlimit:4;stroke-dasharray:none;stroke-opacity:1"
       id="g4176">
      <path
         style="fill:none;fill-rule:evenodd;stroke:url(#linearGradient4415);stroke-width:2;stroke-linecap:butt;stroke-linejoin:miter;stroke-miterlimit:4;stroke-dasharray:none;stroke-opacity:1"
         d="M 376.90366,515.2336 294.78724,467.93792"
         id="path4178"
         inkscape:connector-curvature="0"
         sodipodi:nodetypes="cc" />
      <path
         style="fill:none;fill-rule:evenodd;stroke:url(#linearGradient4417);stroke-width:2;stroke-linecap:butt;stroke-linejoin:miter;stroke-miterlimit:4;stroke-dasharray:none;stroke-opacity:1"
         d="m 376.95731,515.36545 82.44542,-47.79584"
         id="path4180"
         inkscape:connector-curvature="0"
         sodipodi:nodetypes="cc" />
      <path
         style="fill:none;fill-rule:evenodd;stroke:url(#linearGradient4419);stroke-width:2;stroke-linecap:butt;stroke-linejoin:miter;stroke-miterlimit:4;stroke-dasharray:none;stroke-opacity:1"
         d="m 377.14286,515.21935 0,94.14256"
         id="path4182"
         inkscape:connector-curvature="0"
         sodipodi:nodetypes="cc" />
    </g>
    <path
       style="font-style:normal;font-variant:normal;font-weight:200;font-stretch:normal;font-size:medium;line-height:125%;font-family:'.HeitiUI GB18030PUA';-inkscape-font-specification:'.HeitiUI GB18030PUA, Ultra-Light';text-align:start;letter-spacing:0px;word-spacing:0px;writing-mode:lr-tb;text-anchor:start;fill:none;fill-opacity:1;stroke:url(#linearGradient4401);stroke-width:1.89999998;stroke-linecap:butt;stroke-linejoin:miter;stroke-miterlimit:4;stroke-dasharray:none;stroke-opacity:1"
       d="m 92.903326,1061.2027 49.771424,57.4438 0,-57.8372 4.62304,0 0,70.1325"
       id="path3631" />
    <path
       style="font-style:normal;font-variant:normal;font-weight:200;font-stretch:normal;font-size:medium;line-height:125%;font-family:'.HeitiUI GB18030PUA';-inkscape-font-specification:'.HeitiUI GB18030PUA, Ultra-Light';text-align:start;letter-spacing:0px;word-spacing:0px;writing-mode:lr-tb;text-anchor:start;fill:none;fill-opacity:1;stroke:url(#linearGradient4401);stroke-width:1.89999998;stroke-linecap:butt;stroke-linejoin:miter;stroke-miterlimit:4;stroke-dasharray:none;stroke-opacity:1"
       d="m 147.29779,1130.9418 -49.574701,-56.8536 0,57.1487 -4.819763,0 0,-70.0342"
       id="path4379" />
    <path
       style="font-style:normal;font-variant:normal;font-weight:200;font-stretch:normal;font-size:medium;line-height:125%;font-family:'.HeitiUI GB18030PUA';-inkscape-font-specification:'.HeitiUI GB18030PUA, Ultra-Light';text-align:start;letter-spacing:0px;word-spacing:0px;writing-mode:lr-tb;text-anchor:start;fill:none;fill-opacity:1;stroke:url(#linearGradient4403);stroke-width:1.89999998;stroke-linecap:butt;stroke-linejoin:miter;stroke-miterlimit:4;stroke-dasharray:none;stroke-opacity:1"
       d="m 170.82951,1079.2023 0,-20.9512 4.42631,0 0,20.9512 11.0166,0 0,3.7378 -11.0166,0 0,40.8204 -3e-5,8e-4 c 0,1.1803 0.0328,2.0984 0.0984,2.7542 0.13115,0.6557 0.39345,1.1475 0.7869,1.4754 0.39345,0.2623 0.95083,0.4262 1.67216,0.4918 0.7869,0.065 1.8361,0.098 3.1476,0.098 l 2.85251,0 0,3.9345"
       id="path3627" />
    <path
       style="font-style:normal;font-variant:normal;font-weight:200;font-stretch:normal;font-size:medium;line-height:125%;font-family:'.HeitiUI GB18030PUA';-inkscape-font-specification:'.HeitiUI GB18030PUA, Ultra-Light';text-align:start;letter-spacing:0px;word-spacing:0px;writing-mode:lr-tb;text-anchor:start;fill:none;fill-opacity:1;stroke:url(#linearGradient4403);stroke-width:1.89999998;stroke-linecap:butt;stroke-linejoin:miter;stroke-miterlimit:4;stroke-dasharray:none;stroke-opacity:1"
       d="m 183.81336,1132.5152 c -1.11477,0.1311 -2.16397,0.2623 -3.1476,0.3934 -0.91805,0.065 -1.67216,0.098 -2.26234,0.098 -2.623,0 -4.55746,-0.623 -5.80338,-1.8689 -1.18035,-1.2459 -1.77053,-3.3443 -1.77053,-6.2952 l 0,-41.9024 -9.63952,0 0,-3.7378 9.63952,0"
       id="path4381" />
    <path
       style="font-style:normal;font-variant:normal;font-weight:200;font-stretch:normal;font-size:medium;line-height:125%;font-family:'.HeitiUI GB18030PUA';-inkscape-font-specification:'.HeitiUI GB18030PUA, Ultra-Light';text-align:start;letter-spacing:0px;word-spacing:0px;writing-mode:lr-tb;text-anchor:start;fill:none;fill-opacity:1;stroke:url(#linearGradient4405);stroke-width:1.89999998;stroke-linecap:butt;stroke-linejoin:miter;stroke-miterlimit:4;stroke-dasharray:none;stroke-opacity:1"
       d="m 199.83105,1104.8757 c 0.19672,7.6723 2.32791,13.574 6.39356,17.7053 4.13123,4.1312 9.24608,6.1968 15.34455,6.1968 4.65583,0 8.75426,-0.9836 12.29531,-2.9509 3.54105,-2.0328 6.52472,-5.2132 8.95099,-9.5411 l 3.63941,1.9672 c -2.81972,4.8525 -6.26241,8.5247 -10.32806,11.0166 -4.00007,2.4919 -8.6559,3.7378 -13.96747,3.7378 -3.9345,0 -7.47555,-0.623 -10.62316,-1.8689 -3.1476,-1.3115 -6.0329,-3.3444 -8.6559,-6.0985 -5.04927,-5.4427 -7.57391,-11.9674 -7.57391,-19.5741 0,-7.6723 2.52464,-14.2298 7.57391,-19.6725"
       id="path3623" />
    <path
       style="font-style:normal;font-variant:normal;font-weight:200;font-stretch:normal;font-size:medium;line-height:125%;font-family:'.HeitiUI GB18030PUA';-inkscape-font-specification:'.HeitiUI GB18030PUA, Ultra-Light';text-align:start;letter-spacing:0px;word-spacing:0px;writing-mode:lr-tb;text-anchor:start;fill:none;fill-opacity:1;stroke:url(#linearGradient4405);stroke-width:1.89999998;stroke-linecap:butt;stroke-linejoin:miter;stroke-miterlimit:4;stroke-dasharray:none;stroke-opacity:1"
       d="m 202.88028,1085.7934 c 5.246,-5.3116 11.5412,-7.9674 18.88561,-7.9674 7.54112,0 13.80353,2.4919 18.78723,7.4756 2.42628,2.3607 4.29517,5.2132 5.60667,8.5575 1.37707,3.3443 2.19676,7.0165 2.45906,11.0166 l -48.7878,0"
       id="path3621" />
    <path
       style="font-style:normal;font-variant:normal;font-weight:200;font-stretch:normal;font-size:medium;line-height:125%;font-family:'.HeitiUI GB18030PUA';-inkscape-font-specification:'.HeitiUI GB18030PUA, Ultra-Light';text-align:start;letter-spacing:0px;word-spacing:0px;writing-mode:lr-tb;text-anchor:start;fill:none;fill-opacity:1;stroke:url(#linearGradient4405);stroke-width:1.89999998;stroke-linecap:butt;stroke-linejoin:miter;stroke-miterlimit:4;stroke-dasharray:none;stroke-opacity:1"
       d="m 243.70072,1101.1379 c -0.5246,-3.2787 -1.44265,-6.0657 -2.75415,-8.3608 -1.3115,-2.3607 -3.01645,-4.3279 -5.11485,-5.9017 -2.03282,-1.5738 -4.19679,-2.7214 -6.49192,-3.4427 -2.29513,-0.7213 -4.78698,-1.082 -7.47555,-1.082 -10.88545,0 -18.13149,6.2624 -21.73812,18.7872 z"
       id="path4383" />
    <path
       style="font-style:normal;font-variant:normal;font-weight:200;font-stretch:normal;font-size:medium;line-height:125%;font-family:'.HeitiUI GB18030PUA';-inkscape-font-specification:'.HeitiUI GB18030PUA, Ultra-Light';text-align:start;letter-spacing:0px;word-spacing:0px;writing-mode:lr-tb;text-anchor:start;fill:none;fill-opacity:1;stroke:url(#linearGradient4407);stroke-width:1.89999998;stroke-linecap:butt;stroke-linejoin:miter;stroke-miterlimit:4;stroke-dasharray:none;stroke-opacity:1"
       d="m 259.37878,1079.2031 4.52467,0 0,9.0493 1.37708,0.1968 c 2.0984,-4.0657 4.09844,-6.8526 6.00011,-8.3608 1.90167,-1.5083 3.83614,-2.2624 5.80339,-2.2624 1.70495,0 3.31153,0.3607 4.81976,1.082 -0.45903,0.5902 -0.81969,1.082 -1.08199,1.4754 -0.19672,0.3935 -0.45902,0.8853 -0.7869,1.4755 l -0.59017,0.9836 c -0.7869,-0.2623 -1.67216,-0.3934 -2.65579,-0.3934 -1.18035,0 -2.3607,0.3279 -3.54105,0.9836 -1.11477,0.5901 -2.19676,1.4426 -3.24596,2.5574 -0.98363,1.1148 -1.90168,2.4591 -2.75415,4.0329 -0.7869,1.5082 -1.40986,3.1804 -1.86889,5.0165 l 0,-0.098 c -0.45903,1.7049 -0.81969,4.1312 -1.08199,7.2788 -0.2623,3.1476 -0.39345,7.0493 -0.39345,11.7052 l 0,17.3118 -4.52467,0 0,-52.0338"
       id="path3617" />
    <path
       style="font-style:normal;font-variant:normal;font-weight:200;font-stretch:normal;font-size:medium;line-height:125%;font-family:'.HeitiUI GB18030PUA';-inkscape-font-specification:'.HeitiUI GB18030PUA, Ultra-Light';text-align:start;letter-spacing:0px;word-spacing:0px;writing-mode:lr-tb;text-anchor:start;fill:none;fill-opacity:1;stroke:url(#linearGradient4407);stroke-width:1.89999998;stroke-linecap:butt;stroke-linejoin:miter;stroke-miterlimit:4;stroke-dasharray:none;stroke-opacity:1"
       d="m 259.37878,1079.2035 0,-4e-4"
       id="path4385" />
    <path
       style="font-style:normal;font-variant:normal;font-weight:200;font-stretch:normal;font-size:medium;line-height:125%;font-family:'.HeitiUI GB18030PUA';-inkscape-font-specification:'.HeitiUI GB18030PUA, Ultra-Light';text-align:start;letter-spacing:0px;word-spacing:0px;writing-mode:lr-tb;text-anchor:start;fill:none;fill-opacity:1;stroke:url(#linearGradient4409);stroke-width:1.89999998;stroke-linecap:butt;stroke-linejoin:miter;stroke-miterlimit:4;stroke-dasharray:none;stroke-opacity:1"
       d="m 296.838,1085.8917 c 5.31157,-5.3771 11.5412,-8.0657 18.68887,-8.0657 8.52475,0 16.16424,4.6886 22.91847,14.0659 l 0,-12.6888 4.22958,0 0,52.0338"
       id="path3613" />
    <path
       style="font-style:normal;font-variant:normal;font-weight:200;font-stretch:normal;font-size:medium;line-height:125%;font-family:'.HeitiUI GB18030PUA';-inkscape-font-specification:'.HeitiUI GB18030PUA, Ultra-Light';text-align:start;letter-spacing:0px;word-spacing:0px;writing-mode:lr-tb;text-anchor:start;fill:none;fill-opacity:1;stroke:url(#linearGradient4409);stroke-width:1.89999998;stroke-linecap:butt;stroke-linejoin:miter;stroke-miterlimit:4;stroke-dasharray:none;stroke-opacity:1"
       d="m 342.67492,1131.2369 -4.22958,0 0,-11.8035 c -7.47555,9.0493 -15.01668,13.574 -22.62338,13.574 -3.6722,0 -7.11489,-0.6558 -10.32806,-1.9673 -3.1476,-1.3771 -6.06569,-3.4427 -8.75426,-6.1968 -5.31158,-5.3771 -7.96737,-11.8691 -7.96737,-19.4758 0,-7.6723 2.68858,-14.1642 8.06573,-19.4758"
       id="path3611" />
    <path
       style="font-style:normal;font-variant:normal;font-weight:200;font-stretch:normal;font-size:medium;line-height:125%;font-family:'.HeitiUI GB18030PUA';-inkscape-font-specification:'.HeitiUI GB18030PUA, Ultra-Light';text-align:start;letter-spacing:0px;word-spacing:0px;writing-mode:lr-tb;text-anchor:start;fill:none;fill-opacity:1;stroke:url(#linearGradient4409);stroke-width:1.89999998;stroke-linecap:butt;stroke-linejoin:miter;stroke-miterlimit:4;stroke-dasharray:none;stroke-opacity:1"
       d="m 338.83879,1105.4659 c 0,-6.5575 -2.16398,-12.0331 -6.49193,-16.4266 -4.4591,-4.4591 -9.93461,-6.6886 -16.42654,-6.6886 -6.36077,0 -11.77071,2.3279 -16.22981,6.9837 -4.32795,4.6559 -6.49192,10.0658 -6.49192,16.2298 0,6.1641 2.19676,11.6068 6.59028,16.3282 4.39353,4.5903 9.77068,6.8854 16.13145,6.8854 6.49193,0 11.93465,-2.1968 16.32818,-6.5903 4.39353,-4.3935 6.59029,-9.9674 6.59029,-16.7216 z"
       id="path4387" />
    <path
       style="font-style:normal;font-variant:normal;font-weight:200;font-stretch:normal;font-size:medium;line-height:125%;font-family:'.HeitiUI GB18030PUA';-inkscape-font-specification:'.HeitiUI GB18030PUA, Ultra-Light';text-align:start;letter-spacing:0px;word-spacing:0px;writing-mode:lr-tb;text-anchor:start;fill:none;fill-opacity:1;stroke:url(#linearGradient4411);stroke-width:1.89999998;stroke-linecap:butt;stroke-linejoin:miter;stroke-miterlimit:4;stroke-dasharray:none;stroke-opacity:1"
       d="m 408.43948,1088.941 -3.44269,2.164 c -2.49185,-3.0821 -5.37715,-5.3116 -8.6559,-6.6887 -3.21317,-1.4427 -6.98374,-2.164 -11.31169,-2.164 -7.01653,0 -12.81991,2.1968 -17.41016,6.5903 -4.65583,4.5247 -6.98374,9.9346 -6.98374,16.2298 0,6.6231 2.26234,12.2297 6.78701,16.82 4.59025,4.5903 10.45922,6.8854 17.60689,6.8854 4.13123,0 7.80343,-0.6885 11.0166,-2.0656 3.27875,-1.4427 6.26242,-3.7378 8.95099,-6.8854"
       id="path3607" />
    <path
       style="font-style:normal;font-variant:normal;font-weight:200;font-stretch:normal;font-size:medium;line-height:125%;font-family:'.HeitiUI GB18030PUA';-inkscape-font-specification:'.HeitiUI GB18030PUA, Ultra-Light';text-align:start;letter-spacing:0px;word-spacing:0px;writing-mode:lr-tb;text-anchor:start;fill:none;fill-opacity:1;stroke:url(#linearGradient4411);stroke-width:1.89999998;stroke-linecap:butt;stroke-linejoin:miter;stroke-miterlimit:4;stroke-dasharray:none;stroke-opacity:1"
       d="m 404.99679,1119.8268 c 0.59017,0.459 1.01641,0.7869 1.27871,0.9836 0.32787,0.1967 0.75411,0.459 1.27871,0.7869 l 0.88527,0.5902 c -2.75415,3.4755 -6.22963,6.164 -10.42643,8.0657 -4.1968,1.8361 -8.75426,2.7542 -13.67239,2.7542 -3.9345,0 -7.57391,-0.623 -10.91823,-1.8689 -3.34433,-1.3115 -6.36078,-3.3444 -9.04935,-6.0985 -5.44273,-5.3115 -8.16409,-11.7707 -8.16409,-19.3774 0,-3.8689 0.68854,-7.41 2.06561,-10.6231 1.37707,-3.2788 3.44269,-6.2953 6.19684,-9.0494 5.44273,-5.4427 12.39368,-8.1641 20.85285,-8.1641 4.9837,0 9.50837,0.9508 13.57402,2.8525 4.06565,1.9017 7.24604,4.6558 9.54117,8.2625"
       id="path4389" />
    <path
       style="font-style:normal;font-variant:normal;font-weight:200;font-stretch:normal;font-size:medium;line-height:125%;font-family:'.HeitiUI GB18030PUA';-inkscape-font-specification:'.HeitiUI GB18030PUA, Ultra-Light';text-align:start;letter-spacing:0px;word-spacing:0px;writing-mode:lr-tb;text-anchor:start;fill:none;fill-opacity:1;stroke:url(#linearGradient4413);stroke-width:1.89999998;stroke-linecap:butt;stroke-linejoin:miter;stroke-miterlimit:4;stroke-dasharray:none;stroke-opacity:1"
       d="m 428.45473,1079.2023 0,-20.9512 4.42631,0 0,20.9512 11.0166,0 0,3.7378 -11.0166,0 0,40.8204 -3e-5,8e-4 c 0,1.1803 0.0328,2.0984 0.0984,2.7542 0.13115,0.6557 0.39345,1.1475 0.7869,1.4754 0.39345,0.2623 0.95083,0.4262 1.67216,0.4918 0.7869,0.065 1.8361,0.098 3.1476,0.098 l 2.85251,0 0,3.9345"
       id="path3603" />
    <path
       style="font-style:normal;font-variant:normal;font-weight:200;font-stretch:normal;font-size:medium;line-height:125%;font-family:'.HeitiUI GB18030PUA';-inkscape-font-specification:'.HeitiUI GB18030PUA, Ultra-Light';text-align:start;letter-spacing:0px;word-spacing:0px;writing-mode:lr-tb;text-anchor:start;fill:none;fill-opacity:1;stroke:url(#linearGradient4413);stroke-width:1.89999998;stroke-linecap:butt;stroke-linejoin:miter;stroke-miterlimit:4;stroke-dasharray:none;stroke-opacity:1"
       d="m 441.43858,1132.5152 c -1.11477,0.1311 -2.16397,0.2623 -3.1476,0.3934 -0.91805,0.065 -1.67216,0.098 -2.26234,0.098 -2.623,0 -4.55746,-0.623 -5.80338,-1.8689 -1.18035,-1.2459 -1.77053,-3.3443 -1.77053,-6.2952 l 0,-41.9024 -9.63952,0 0,-3.7378 9.63952,0"
       id="path4391" />
  </g>
</svg>
